<svg width="1238" height="487" viewBox="0 0 1238 487" fill="none" xmlns="http://www.w3.org/2000/svg">
<path d="M85.5028 219.767C85.5837 221.565 85.6288 223.817 85.6381 226.524C85.6409 229.156 85.6227 231.978 85.5833 234.99C85.612 237.92 85.5726 240.932 85.465 244.025C85.4256 247.037 85.3668 249.825 85.2885 252.389C85.2849 254.946 85.2894 257.164 85.3021 259.043C85.3083 260.848 85.3341 262.011 85.3794 262.534C85.4826 267.188 85.5192 271.509 85.4894 275.498C85.5342 279.48 85.5385 283.428 85.5022 287.342C85.4659 291.257 85.4052 295.323 85.3202 299.542C85.3033 303.68 85.288 308.269 85.2743 313.31C85.2605 318.35 85.2207 323.956 85.1549 330.129C85.1636 336.296 85.2129 343.361 85.3025 351.325L131.25 342.599C133.321 342.194 135.028 341.933 136.372 341.816C138.014 341.673 139.044 341.847 139.463 342.337C139.956 342.821 140.251 343.623 140.348 344.742C140.361 344.892 140.344 345.119 140.295 345.424C140.24 345.654 140.095 346.156 139.861 346.928C139.702 347.694 139.423 348.809 139.023 350.272C138.699 351.73 138.236 353.763 137.635 356.372L135.813 363.976C135.199 366.436 134.604 368.669 134.026 370.674C133.516 372.599 132.8 374.316 131.878 375.825C130.949 377.259 129.737 378.455 128.241 379.412C126.744 380.369 124.774 381.067 122.33 381.504C120.776 381.79 118.658 382.086 115.977 382.394C113.303 382.777 110.215 383.158 106.713 383.537C103.217 383.991 99.4234 384.47 95.3307 384.976C91.3128 385.475 87.1861 386.022 82.9506 386.615C78.7833 387.127 74.5723 387.568 70.3174 387.937C66.069 388.381 62.0445 388.806 58.244 389.211C54.4435 389.616 50.9416 389.995 47.7382 390.348C44.5349 390.701 41.8914 391.006 39.8077 391.262C37.8669 391.431 36.4357 391.404 35.514 391.184C34.6669 390.956 34.2143 390.507 34.156 389.835C34.0847 389.014 34.2423 387.797 34.6287 386.184C35.0217 384.646 35.5477 382.908 36.2068 380.97C36.8595 378.958 37.5835 376.902 38.379 374.803C39.2426 372.622 40.0754 370.519 40.8774 368.494L40.4308 328.258C40.4384 321.413 40.4362 314.456 40.4243 307.388C40.4124 300.319 40.3453 293.481 40.223 286.873L39.5509 257.036C39.3897 249.98 39.2476 244.878 39.1248 241.73C38.9955 238.507 38.9179 236.746 38.8919 236.448C38.9246 235.091 38.9394 233.962 38.9363 233.06C38.9332 232.157 38.9803 231.401 39.0778 230.791C39.2499 230.174 39.5096 229.701 39.8569 229.37C40.2043 229.039 40.7447 228.766 41.4782 228.552L79.9731 215.847C80.7683 215.477 81.7631 215.24 82.9575 215.137C83.7786 215.065 84.3611 215.278 84.7051 215.775C85.1172 216.19 85.3815 217.07 85.4982 218.413C85.5111 218.563 85.4932 218.79 85.4445 219.095C85.464 219.319 85.4834 219.543 85.5028 219.767ZM242.86 274.135C242.652 275.206 242.222 276.747 241.569 278.759C240.91 280.697 240.124 282.909 239.212 285.394C238.374 287.874 237.44 290.55 236.411 293.422C235.45 296.213 234.492 299.041 233.538 301.907C233.18 302.991 232.838 303.81 232.51 304.365C232.176 304.845 231.608 305.233 230.806 305.528C230.004 305.823 228.86 306.073 227.374 306.277C225.956 306.4 223.943 306.613 221.337 306.914L205.802 308.601L205.641 343.136L263.082 338.15L263.461 342.517C263.325 342.679 262.778 343.742 261.82 345.705C260.856 347.594 259.738 349.872 258.465 352.54C257.192 355.207 255.848 357.919 254.433 360.674C253.011 363.355 251.808 365.527 250.824 367.192C250.195 368.6 249.427 369.72 248.521 370.551C247.622 371.456 246.592 372.147 245.43 372.624C244.342 373.095 243.093 373.429 241.681 373.626C240.344 373.818 238.854 373.985 237.212 374.127C230.494 374.71 223.464 375.17 216.122 375.507C208.856 375.836 201.583 376.092 194.303 376.272C187.023 376.453 179.887 376.546 172.893 376.551C165.98 376.625 159.549 376.619 153.6 376.534C153.071 376.505 152.56 376.248 152.066 375.764C151.648 375.274 151.409 374.693 151.351 374.021C151.052 374.047 151.184 373.397 151.746 372.069C152.382 370.736 153.247 369.006 154.341 366.88C155.435 364.755 156.619 362.358 157.891 359.69C159.232 356.942 160.498 354.2 161.69 351.464L161.294 326.115C161.224 321.834 161.172 318.642 161.14 316.539C161.183 314.43 161.197 313.3 161.184 313.151C156.699 313.465 153.321 313.533 151.049 313.354C148.852 313.168 147.698 312.441 147.588 311.172C147.536 310.575 147.961 309.41 148.864 307.677C149.841 305.938 151.023 303.955 152.409 301.729C153.788 299.428 155.236 297.046 156.752 294.583C158.343 292.113 159.726 289.85 160.901 287.792L160.396 249.479L160.06 249.508C158.424 249.726 156.938 249.93 155.601 250.121C154.257 250.238 153.025 250.345 151.906 250.442C148.322 250.753 145.731 250.79 144.131 250.553C142.599 250.234 141.785 249.515 141.687 248.396C141.642 247.873 141.996 246.752 142.749 245.032C143.502 243.312 144.46 241.348 145.622 239.142C146.778 236.86 148.002 234.498 149.294 232.054C150.58 229.536 151.732 227.217 152.752 225.098L158.478 213.094L205.282 209.031L260.134 200.209C260.208 200.202 260.398 200.223 260.703 200.272C261.077 200.24 261.459 200.319 261.852 200.511C262.238 200.628 262.6 200.897 262.938 201.319C263.35 201.735 263.591 202.353 263.663 203.174L262.489 209.142C262.109 210.83 261.626 212.639 261.042 214.57C260.451 216.426 259.792 218.364 259.064 220.382L255.265 233.799C254.853 235.113 254.34 236.135 253.726 236.865C253.113 237.596 251.727 238.092 249.569 238.354C243.908 238.996 237.586 239.808 230.602 240.791C223.685 241.692 215.724 242.684 206.718 243.766C206.51 244.837 206.435 245.709 206.493 246.38C206.545 246.978 206.574 248.178 206.581 249.983L206.468 255.182C206.526 257.584 206.525 260.179 206.467 262.966C206.408 265.754 206.329 269.183 206.231 273.253C210.025 272.773 213.707 272.303 217.278 271.843C220.922 271.376 224.234 270.976 227.214 270.642C230.187 270.233 232.752 269.898 234.911 269.635C237.143 269.366 238.708 269.193 239.604 269.115C240.201 269.063 240.892 269.229 241.677 269.612C242.463 269.995 242.91 270.821 243.021 272.09C243.072 272.687 243.019 273.369 242.86 274.135ZM308.679 365.667C308.579 360.186 308.495 354.891 308.428 349.782C308.36 344.674 308.269 339.718 308.153 334.915L307.596 281.715C307.694 277.645 307.75 273.955 307.763 270.645C307.77 267.26 307.712 263.993 307.59 260.845C307.535 257.616 307.443 254.39 307.314 251.167C307.252 247.863 307.162 244.223 307.043 240.247C304.573 240.386 301.957 240.576 299.195 240.816C296.508 241.049 293.671 241.295 290.685 241.554L269.075 243.43C268.254 243.501 267.705 243.248 267.43 242.67C267.222 242.012 267.095 241.421 267.05 240.898L266.982 240.115L276.49 206.686L276.339 206.248C276.307 205.875 276.505 205.557 276.933 205.294C277.43 204.95 278.53 204.629 280.234 204.33C290.483 202.839 300.4 201.414 309.984 200.056C319.637 198.616 329.146 197.264 338.513 196C347.954 194.729 357.358 193.462 366.725 192.197C376.166 190.927 385.872 189.67 395.842 188.429C396.738 188.351 397.681 188.382 398.67 188.522C399.735 188.655 400.329 189.431 400.452 190.849C400.465 190.998 400.44 191.151 400.379 191.307C400.317 191.463 400.293 191.615 400.306 191.764C399.377 194.929 398.51 197.937 397.705 200.79C396.974 203.636 396.24 206.445 395.503 209.216C394.766 211.988 393.995 214.8 393.189 217.652C392.459 220.499 391.629 223.504 390.7 226.668C390.632 226.749 390.515 227.135 390.349 227.827C390.177 228.443 389.903 229.182 389.526 230.042C389.143 230.827 388.608 231.588 387.92 232.324C387.231 233.061 386.331 233.515 385.217 233.687C384.838 233.645 384.461 233.64 384.088 233.672C383.715 233.705 383.304 233.74 382.856 233.779L352.96 236.374C352.917 240.214 352.894 244.277 352.89 248.564C352.961 252.845 352.947 257.02 352.849 261.09L352.266 349.249C352.25 349.927 352.159 350.612 351.993 351.303C351.902 351.988 351.459 352.515 350.664 352.885L319.968 367.057C319.173 367.426 318.123 367.894 316.818 368.458C315.513 369.023 314.226 369.36 312.957 369.47C311.912 369.561 310.956 369.381 310.09 368.929C309.298 368.472 308.841 367.534 308.717 366.115L308.679 365.667ZM438.564 354.393C438.465 348.911 438.381 343.616 438.314 338.508C438.246 333.4 438.155 328.444 438.038 323.64L437.482 270.441C437.58 266.371 437.636 262.681 437.649 259.37C437.656 255.985 437.598 252.719 437.475 249.57C437.421 246.341 437.329 243.115 437.199 239.892C437.138 236.588 437.048 232.949 436.928 228.973C434.459 229.112 431.843 229.302 429.081 229.541C426.393 229.775 423.557 230.021 420.571 230.28L398.961 232.156C398.14 232.227 397.591 231.974 397.315 231.396C397.108 230.737 396.981 230.147 396.936 229.624L396.868 228.84L406.376 195.412L406.225 194.973C406.193 194.6 406.391 194.282 406.819 194.019C407.316 193.675 408.416 193.354 410.12 193.056C420.369 191.565 430.286 190.14 439.87 188.781C449.522 187.342 459.032 185.99 468.399 184.726C477.84 183.455 487.244 182.187 496.61 180.923C506.052 179.652 515.758 178.396 525.728 177.155C526.624 177.077 527.566 177.108 528.556 177.248C529.621 177.381 530.215 178.157 530.338 179.575C530.351 179.724 530.326 179.877 530.265 180.032C530.203 180.188 530.179 180.341 530.191 180.49C529.263 183.654 528.396 186.663 527.59 189.515C526.86 192.362 526.126 195.17 525.389 197.942C524.652 200.713 523.88 203.525 523.075 206.378C522.344 209.224 521.515 212.23 520.586 215.394C520.518 215.475 520.401 215.861 520.235 216.552C520.063 217.169 519.789 217.907 519.412 218.767C519.029 219.553 518.494 220.314 517.805 221.05C517.117 221.787 516.217 222.241 515.103 222.413C514.724 222.371 514.347 222.366 513.974 222.398C513.601 222.43 513.19 222.466 512.742 222.505L482.846 225.1C482.803 228.939 482.78 233.003 482.776 237.29C482.847 241.571 482.833 245.746 482.735 249.816L482.152 337.974C482.136 338.653 482.045 339.338 481.879 340.029C481.788 340.714 481.345 341.241 480.55 341.611L449.854 355.782C449.058 356.152 448.008 356.619 446.704 357.184C445.399 357.748 444.112 358.086 442.843 358.196C441.798 358.287 440.842 358.106 439.976 357.655C439.184 357.197 438.726 356.259 438.603 354.841L438.564 354.393ZM668.787 169.475C668.812 171.504 668.81 174.512 668.78 178.501C668.744 182.415 668.682 186.895 668.593 191.942C668.573 196.907 668.538 202.138 668.489 207.632C668.439 213.127 668.37 218.397 668.282 223.444C668.261 228.41 668.24 232.924 668.216 236.987C668.193 241.051 668.194 244.097 668.22 246.125C668.032 262.161 666.531 276.055 663.715 287.806C660.968 299.476 656.848 309.198 651.355 316.97C645.863 324.742 638.97 330.68 630.677 334.784C622.465 338.957 612.761 341.529 601.564 342.501C593.875 343.168 586.511 342.378 579.472 340.131C572.44 337.959 566.165 334.555 560.648 329.92C555.132 325.284 550.573 319.551 546.971 312.718C543.438 305.805 541.292 297.981 540.534 289.248C540.437 288.128 540.337 286.106 540.233 283.182C540.198 280.176 540.145 276.533 540.074 272.253C540.078 267.965 540.034 263.118 539.94 257.711C539.915 252.223 539.861 246.399 539.778 240.239L539.508 221.535C539.366 214.704 539.213 209.039 539.048 204.54C538.877 199.968 538.783 196.29 538.767 193.509C538.826 190.721 539.062 188.67 539.474 187.356C539.887 186.041 540.636 185.149 541.724 184.678L579.167 172.854C580.111 172.472 581.106 172.235 582.151 172.144C583.346 172.04 584.159 172.308 584.59 172.948C585.096 173.581 585.43 174.83 585.592 176.696L584.741 265.668C584.819 268.294 584.804 271.153 584.696 274.246C584.589 277.339 584.674 280.49 584.953 283.7C585.121 285.641 585.53 287.749 586.179 290.024C586.902 292.293 587.989 294.417 589.439 296.397C590.883 298.302 592.749 299.87 595.037 301.1C597.393 302.25 600.325 302.672 603.834 302.367C608.089 301.998 611.445 300.804 613.902 298.786C616.352 296.693 618.232 294.086 619.54 290.964C620.842 287.767 621.664 284.236 622.005 280.371C622.415 276.424 622.669 272.416 622.767 268.346C622.732 263.611 622.7 258.048 622.672 251.658C622.644 245.268 622.577 238.43 622.471 231.143L621.84 186.185C621.872 184.829 621.85 183.703 621.772 182.807C621.769 181.905 621.816 181.148 621.914 180.538C622.011 179.928 622.271 179.454 622.693 179.117C623.189 178.773 623.954 178.481 624.986 178.241L662.361 165.633C663.306 165.25 664.3 165.013 665.345 164.923C666.39 164.832 667.166 165.103 667.672 165.736C668.247 166.288 668.618 167.534 668.787 169.475ZM710.551 325.708C709.026 325.464 707.97 324.991 707.382 324.29C706.788 323.515 706.449 322.642 706.365 321.671C706.346 321.447 706.333 321.298 706.326 321.223C706.395 321.142 706.419 320.99 706.399 320.766C706.297 312.652 706.199 304.162 706.106 295.295C706.082 286.347 706.085 277.284 706.115 268.106C706.14 258.853 706.167 249.638 706.198 240.459C706.228 231.281 706.281 222.364 706.357 213.709L706.246 213.718C705.947 213.744 705.111 214.08 703.738 214.726C702.433 215.29 700.911 215.949 699.172 216.701C697.5 217.373 695.788 218.01 694.035 218.614C692.283 219.217 690.846 219.568 689.727 219.665C688.756 219.749 688.015 219.437 687.502 218.73C687.064 218.016 686.806 217.211 686.728 216.315C686.67 215.643 686.727 214.999 686.899 214.382C688.409 208.385 690.026 202.754 691.75 197.49C693.475 192.226 695.186 186.813 696.884 181.251C702.292 177.698 707.959 174.536 713.885 171.765C719.806 168.92 725.799 166.482 731.865 164.451C737.999 162.339 744.132 160.641 750.263 159.357C756.387 157.998 762.36 157.066 768.183 156.56C776.319 155.854 784.045 156.048 791.36 157.143C798.75 158.232 805.247 160.3 810.852 163.348C816.524 166.316 821.121 170.316 824.642 175.351C828.23 180.304 830.333 186.326 830.948 193.418C831.214 196.478 830.798 199.485 829.7 202.438C828.603 205.391 827.085 208.268 825.147 211.069C823.277 213.788 821.133 216.381 818.715 218.847C816.29 221.239 813.887 223.44 811.504 225.452C815.314 227.754 818.731 229.864 821.756 231.783C824.848 233.62 827.503 235.608 829.719 237.747C831.936 239.886 833.693 242.366 834.99 245.187C836.282 247.933 837.106 251.358 837.462 255.464C838.006 261.734 837.408 267.841 835.668 273.783C833.995 279.644 831.432 285.206 827.978 290.47C824.592 295.652 820.421 300.452 815.465 304.868C810.583 309.278 805.167 313.17 799.218 316.545C793.336 319.838 787.027 322.529 780.289 324.618C773.632 326.775 766.832 328.155 759.89 328.758C757.352 328.978 753.933 329.012 749.633 328.858C745.333 328.705 740.799 328.459 736.031 328.121C731.345 327.851 726.686 327.466 722.055 326.965C717.505 326.533 713.67 326.114 710.551 325.708ZM751.508 198.395C750.854 207.327 750.437 216.388 750.257 225.579C750.071 234.696 749.977 243.579 749.976 252.228C750.043 260.796 750.148 268.947 750.293 276.681C750.438 284.415 750.512 291.328 750.514 297.42C753.5 297.16 756.697 296.732 760.105 296.136C763.581 295.458 767 294.56 770.362 293.44C773.725 292.321 776.956 290.988 780.056 289.44C783.223 287.811 785.955 285.92 788.25 283.765C790.545 281.61 792.325 279.162 793.591 276.42C794.851 273.603 795.332 270.478 795.034 267.044C794.852 264.954 794.059 263.18 792.654 261.723C791.242 260.19 789.48 258.952 787.368 258.007C785.323 256.981 783.074 256.199 780.621 255.66C778.161 255.046 775.754 254.616 773.401 254.369C771.116 254.04 768.994 253.849 767.034 253.793C765.142 253.657 763.704 253.556 762.72 253.491C761.662 253.432 760.958 253.117 760.608 252.546C760.257 251.975 760.043 251.241 759.966 250.345C759.881 249.375 760.352 247.867 761.378 245.823C762.404 243.778 763.816 240.986 765.615 237.445L769.666 229.535C771.617 228.614 773.701 227.493 775.918 226.172C778.209 224.845 780.301 223.385 782.193 221.792C784.079 220.124 785.616 218.336 786.804 216.428C787.986 214.445 788.483 212.371 788.295 210.206C787.764 204.085 786.015 199.536 783.049 196.56C780.151 193.502 776.202 192.19 771.201 192.625C765.527 193.117 758.963 195.041 751.508 198.395ZM870.893 311.79C869.368 311.546 868.311 311.074 867.724 310.372C867.13 309.597 866.791 308.724 866.707 307.753C866.688 307.529 866.675 307.38 866.668 307.305C866.736 307.224 866.761 307.072 866.741 306.848C866.639 298.734 866.541 290.244 866.448 281.377C866.424 272.429 866.427 263.366 866.457 254.188C866.481 244.935 866.509 235.72 866.539 226.541C866.57 217.363 866.623 208.446 866.699 199.791L866.587 199.8C866.289 199.826 865.453 200.162 864.08 200.808C862.775 201.372 861.253 202.031 859.513 202.783C857.842 203.455 856.13 204.093 854.377 204.696C852.624 205.299 851.188 205.65 850.069 205.747C849.098 205.831 848.357 205.519 847.844 204.812C847.406 204.098 847.148 203.293 847.07 202.397C847.012 201.725 847.069 201.081 847.241 200.464C848.751 194.467 850.368 188.836 852.092 183.572C853.816 178.308 855.528 172.895 857.226 167.333C862.633 163.78 868.3 160.618 874.227 157.847C880.147 155.002 886.14 152.564 892.207 150.533C898.341 148.421 904.473 146.723 910.604 145.439C916.729 144.08 922.702 143.148 928.525 142.642C936.661 141.936 944.387 142.13 951.702 143.225C959.092 144.314 965.589 146.382 971.194 149.43C976.866 152.398 981.463 156.398 984.983 161.433C988.572 166.386 990.674 172.408 991.29 179.5C991.556 182.56 991.14 185.567 990.042 188.52C988.945 191.473 987.427 194.35 985.489 197.151C983.619 199.87 981.475 202.463 979.057 204.929C976.632 207.321 974.229 209.522 971.846 211.534C975.656 213.836 979.073 215.946 982.098 217.865C985.19 219.702 987.845 221.69 990.061 223.829C992.277 225.968 994.035 228.448 995.332 231.269C996.624 234.015 997.447 237.44 997.804 241.546C998.348 247.816 997.75 253.923 996.009 259.865C994.337 265.726 991.774 271.288 988.32 276.552C984.934 281.734 980.763 286.534 975.806 290.95C970.925 295.36 965.509 299.252 959.559 302.627C953.678 305.92 947.368 308.611 940.631 310.7C933.974 312.857 927.174 314.237 920.232 314.84C917.694 315.06 914.275 315.094 909.975 314.94C905.674 314.787 901.141 314.541 896.373 314.203C891.687 313.933 887.028 313.548 882.397 313.047C877.846 312.615 874.012 312.196 870.893 311.79ZM911.85 184.477C911.196 193.409 910.779 202.47 910.599 211.661C910.413 220.778 910.319 229.661 910.318 238.31C910.384 246.878 910.49 255.029 910.635 262.763C910.78 270.497 910.854 277.41 910.856 283.502C913.842 283.242 917.039 282.814 920.446 282.218C923.922 281.54 927.342 280.642 930.704 279.522C934.067 278.403 937.298 277.07 940.397 275.522C943.565 273.893 946.297 272.002 948.591 269.847C950.886 267.693 952.667 265.244 953.933 262.502C955.193 259.685 955.674 256.56 955.375 253.126C955.194 251.036 954.401 249.262 952.996 247.805C951.584 246.272 949.822 245.034 947.709 244.089C945.665 243.063 943.416 242.281 940.962 241.742C938.502 241.128 936.096 240.698 933.743 240.451C931.458 240.122 929.336 239.931 927.376 239.875C925.483 239.739 924.046 239.638 923.062 239.573C922.004 239.514 921.3 239.199 920.95 238.628C920.599 238.057 920.385 237.323 920.307 236.427C920.223 235.457 920.694 233.949 921.72 231.905C922.746 229.861 924.158 227.068 925.957 223.527L930.008 215.617C931.959 214.696 934.043 213.575 936.259 212.254C938.551 210.927 940.643 209.467 942.535 207.874C944.421 206.206 945.958 204.418 947.146 202.51C948.328 200.527 948.825 198.453 948.637 196.288C948.106 190.167 946.357 185.619 943.391 182.642C940.493 179.584 936.544 178.272 931.542 178.707C925.869 179.199 919.305 181.123 911.85 184.477ZM1109.51 198.908C1109.3 199.979 1108.87 201.52 1108.22 203.532C1107.56 205.47 1106.78 207.682 1105.86 210.167C1105.03 212.647 1104.09 215.323 1103.06 218.195C1102.1 220.986 1101.14 223.814 1100.19 226.68C1099.83 227.764 1099.49 228.583 1099.16 229.138C1098.83 229.618 1098.26 230.006 1097.46 230.301C1096.66 230.596 1095.51 230.846 1094.03 231.05C1092.61 231.173 1090.6 231.386 1087.99 231.687L1072.45 233.374L1072.29 267.909L1129.73 262.923L1130.11 267.29C1129.98 267.452 1129.43 268.515 1128.47 270.478C1127.51 272.367 1126.39 274.645 1125.12 277.313C1123.84 279.98 1122.5 282.692 1121.08 285.447C1119.66 288.128 1118.46 290.3 1117.48 291.965C1116.85 293.373 1116.08 294.493 1115.17 295.324C1114.27 296.229 1113.24 296.92 1112.08 297.397C1110.99 297.868 1109.74 298.202 1108.33 298.399C1107 298.591 1105.51 298.758 1103.86 298.9C1097.15 299.483 1090.12 299.943 1082.77 300.28C1075.51 300.609 1068.23 300.865 1060.95 301.045C1053.68 301.226 1046.54 301.319 1039.54 301.324C1032.63 301.398 1026.2 301.392 1020.25 301.307C1019.72 301.278 1019.21 301.021 1018.72 300.537C1018.3 300.047 1018.06 299.466 1018 298.795C1017.7 298.82 1017.84 298.17 1018.4 296.842C1019.03 295.509 1019.9 293.779 1020.99 291.653C1022.09 289.528 1023.27 287.131 1024.54 284.463C1025.88 281.715 1027.15 278.973 1028.34 276.237L1027.95 250.888C1027.88 246.607 1027.82 243.415 1027.79 241.312C1027.83 239.203 1027.85 238.073 1027.84 237.924C1023.35 238.238 1019.97 238.306 1017.7 238.127C1015.5 237.941 1014.35 237.214 1014.24 235.945C1014.19 235.348 1014.61 234.183 1015.52 232.45C1016.49 230.711 1017.67 228.728 1019.06 226.502C1020.44 224.201 1021.89 221.819 1023.4 219.356C1024.99 216.886 1026.38 214.623 1027.55 212.565L1027.05 174.252L1026.71 174.281C1025.08 174.499 1023.59 174.703 1022.25 174.894C1020.91 175.011 1019.68 175.118 1018.56 175.215C1014.97 175.526 1012.38 175.563 1010.78 175.326C1009.25 175.007 1008.44 174.288 1008.34 173.169C1008.29 172.646 1008.65 171.525 1009.4 169.805C1010.15 168.085 1011.11 166.121 1012.27 163.915C1013.43 161.633 1014.65 159.271 1015.95 156.827C1017.23 154.309 1018.38 151.99 1019.4 149.871L1025.13 137.867L1071.93 133.804L1126.79 124.982C1126.86 124.975 1127.05 124.996 1127.36 125.045C1127.73 125.013 1128.11 125.092 1128.5 125.284C1128.89 125.401 1129.25 125.67 1129.59 126.092C1130 126.508 1130.24 127.126 1130.31 127.947L1129.14 133.915C1128.76 135.603 1128.28 137.412 1127.69 139.343C1127.1 141.199 1126.44 143.137 1125.72 145.155L1121.92 158.572C1121.5 159.886 1120.99 160.908 1120.38 161.638C1119.76 162.369 1118.38 162.865 1116.22 163.127C1110.56 163.769 1104.24 164.581 1097.25 165.564C1090.34 166.465 1082.38 167.457 1073.37 168.539C1073.16 169.61 1073.09 170.482 1073.15 171.153C1073.2 171.751 1073.23 172.951 1073.23 174.756L1073.12 179.955C1073.18 182.357 1073.18 184.952 1073.12 187.739C1073.06 190.527 1072.98 193.956 1072.88 198.026C1076.68 197.546 1080.36 197.076 1083.93 196.616C1087.57 196.149 1090.89 195.749 1093.87 195.415C1096.84 195.006 1099.4 194.671 1101.56 194.408C1103.8 194.139 1105.36 193.966 1106.26 193.888C1106.85 193.836 1107.54 194.002 1108.33 194.385C1109.11 194.768 1109.56 195.594 1109.67 196.863C1109.72 197.46 1109.67 198.142 1109.51 198.908Z" fill="#010511"/>
<path d="M1198.01 97.9294H1178.87V117.508H1161.06V97.9294H1141.92V81.1007H1161.06V61.4123H1178.87V81.1007H1198.01V97.9294Z" fill="#010511"/>
</svg>
